<mxfile host="app.diagrams.net" modified="2024-05-12T12:06:25.118Z" agent="Mozilla/5.0 (Windows NT 10.0; Win64; x64) AppleWebKit/537.36 (KHTML, like Gecko) Chrome/124.0.0.0 Safari/537.36" etag="LaZ0D3w3DyUDstPhEnpk" version="24.4.0" type="device">
  <diagram name="Page-1" id="Q4b--6GjxJX6_ZAHcz8l">
    <mxGraphModel dx="1900" dy="570" grid="1" gridSize="10" guides="1" tooltips="1" connect="1" arrows="1" fold="1" page="1" pageScale="1" pageWidth="850" pageHeight="1100" math="0" shadow="0">
      <root>
        <mxCell id="0" />
        <mxCell id="1" parent="0" />
        <mxCell id="S3-ySOjffZ_ttnA3KEZj-1" value="" style="rounded=0;whiteSpace=wrap;html=1;" parent="1" vertex="1">
          <mxGeometry x="50" y="210" width="300" height="240" as="geometry" />
        </mxCell>
        <mxCell id="S3-ySOjffZ_ttnA3KEZj-2" value="" style="endArrow=none;html=1;rounded=0;" parent="1" edge="1">
          <mxGeometry width="50" height="50" relative="1" as="geometry">
            <mxPoint x="50" y="251" as="sourcePoint" />
            <mxPoint x="350" y="251" as="targetPoint" />
          </mxGeometry>
        </mxCell>
        <mxCell id="S3-ySOjffZ_ttnA3KEZj-3" value="" style="endArrow=none;html=1;rounded=0;exitX=0;exitY=0.75;exitDx=0;exitDy=0;entryX=1;entryY=0.75;entryDx=0;entryDy=0;" parent="1" source="S3-ySOjffZ_ttnA3KEZj-1" target="S3-ySOjffZ_ttnA3KEZj-1" edge="1">
          <mxGeometry width="50" height="50" relative="1" as="geometry">
            <mxPoint x="270" y="280" as="sourcePoint" />
            <mxPoint x="320" y="230" as="targetPoint" />
          </mxGeometry>
        </mxCell>
        <mxCell id="S3-ySOjffZ_ttnA3KEZj-4" value="Renovation" style="text;html=1;align=center;verticalAlign=middle;whiteSpace=wrap;rounded=0;strokeWidth=2;" parent="1" vertex="1">
          <mxGeometry x="155" y="210" width="90" height="40" as="geometry" />
        </mxCell>
        <mxCell id="S3-ySOjffZ_ttnA3KEZj-7" value="&lt;h1 style=&quot;margin-top: 0px;&quot;&gt;&lt;br&gt;&lt;/h1&gt;&lt;div&gt;+ Id : int&lt;/div&gt;&lt;div&gt;+ HostId : int&lt;/div&gt;&lt;div&gt;+ StartDate : DateTime&lt;/div&gt;&lt;div&gt;+ EndDate : DateTime&lt;/div&gt;&lt;div&gt;+ Description : String&lt;/div&gt;&lt;div&gt;+ DateRange : String&lt;/div&gt;&lt;div&gt;+ Duration : int&lt;/div&gt;&lt;div&gt;&lt;br&gt;&lt;/div&gt;" style="text;html=1;whiteSpace=wrap;overflow=hidden;rounded=0;" parent="1" vertex="1">
          <mxGeometry x="60" y="210" width="150" height="180" as="geometry" />
        </mxCell>
        <mxCell id="S3-ySOjffZ_ttnA3KEZj-9" value="" style="rounded=0;whiteSpace=wrap;html=1;" parent="1" vertex="1">
          <mxGeometry x="45" y="490" width="300" height="290" as="geometry" />
        </mxCell>
        <mxCell id="S3-ySOjffZ_ttnA3KEZj-10" value="" style="endArrow=none;html=1;rounded=0;" parent="1" edge="1">
          <mxGeometry width="50" height="50" relative="1" as="geometry">
            <mxPoint x="45" y="531" as="sourcePoint" />
            <mxPoint x="345" y="531" as="targetPoint" />
          </mxGeometry>
        </mxCell>
        <mxCell id="S3-ySOjffZ_ttnA3KEZj-11" value="" style="endArrow=none;html=1;rounded=0;exitX=0;exitY=0.75;exitDx=0;exitDy=0;entryX=1;entryY=0.75;entryDx=0;entryDy=0;" parent="1" source="S3-ySOjffZ_ttnA3KEZj-9" target="S3-ySOjffZ_ttnA3KEZj-9" edge="1">
          <mxGeometry width="50" height="50" relative="1" as="geometry">
            <mxPoint x="265" y="560" as="sourcePoint" />
            <mxPoint x="315" y="510" as="targetPoint" />
          </mxGeometry>
        </mxCell>
        <mxCell id="S3-ySOjffZ_ttnA3KEZj-12" value="Accommodation" style="text;html=1;align=center;verticalAlign=middle;whiteSpace=wrap;rounded=0;strokeWidth=2;" parent="1" vertex="1">
          <mxGeometry x="150" y="490" width="90" height="40" as="geometry" />
        </mxCell>
        <mxCell id="S3-ySOjffZ_ttnA3KEZj-13" value="&lt;h1 style=&quot;margin-top: 0px;&quot;&gt;&lt;br&gt;&lt;/h1&gt;&lt;div&gt;+ Id : int&lt;/div&gt;&lt;div&gt;+ Name: String&lt;/div&gt;&lt;div&gt;+ HostId : int&lt;/div&gt;&lt;div&gt;+ City : String&lt;/div&gt;&lt;div&gt;+ Country : String&lt;/div&gt;&lt;div&gt;+ Type : AccommodationType&lt;/div&gt;&lt;div&gt;+ MaxGuestNumber : int&lt;/div&gt;&lt;div&gt;+ MinReservationDays : int&lt;/div&gt;&lt;div&gt;+ ReservationDaysLimit : int&lt;/div&gt;&lt;div&gt;+ Pictures : List&amp;lt;String&amp;gt;&lt;/div&gt;&lt;div&gt;+UnavailableDates : List &amp;lt;CalendarDateRange&amp;gt;&lt;/div&gt;&lt;div&gt;&lt;br&gt;&lt;/div&gt;" style="text;html=1;whiteSpace=wrap;overflow=hidden;rounded=0;" parent="1" vertex="1">
          <mxGeometry x="55" y="490" width="265" height="210" as="geometry" />
        </mxCell>
        <mxCell id="S3-ySOjffZ_ttnA3KEZj-14" value="" style="rounded=0;whiteSpace=wrap;html=1;" parent="1" vertex="1">
          <mxGeometry x="20" y="20" width="240" height="100" as="geometry" />
        </mxCell>
        <mxCell id="S3-ySOjffZ_ttnA3KEZj-15" value="" style="endArrow=none;html=1;rounded=0;" parent="1" edge="1">
          <mxGeometry width="50" height="50" relative="1" as="geometry">
            <mxPoint x="20" y="61" as="sourcePoint" />
            <mxPoint x="260" y="61" as="targetPoint" />
          </mxGeometry>
        </mxCell>
        <mxCell id="S3-ySOjffZ_ttnA3KEZj-17" value="AccommodationType &amp;lt;&amp;lt;enum&amp;gt;&amp;gt;" style="text;html=1;align=center;verticalAlign=middle;whiteSpace=wrap;rounded=0;strokeWidth=2;" parent="1" vertex="1">
          <mxGeometry x="50" y="20" width="170" height="40" as="geometry" />
        </mxCell>
        <mxCell id="S3-ySOjffZ_ttnA3KEZj-18" value="&lt;h1 style=&quot;margin-top: 0px;&quot;&gt;&lt;br&gt;&lt;/h1&gt;&lt;div&gt;APARTMENT&lt;/div&gt;&lt;div&gt;HOUSE&lt;/div&gt;&lt;div&gt;COTTAGE&lt;/div&gt;" style="text;html=1;whiteSpace=wrap;overflow=hidden;rounded=0;" parent="1" vertex="1">
          <mxGeometry x="30" y="20" width="150" height="110" as="geometry" />
        </mxCell>
        <mxCell id="S3-ySOjffZ_ttnA3KEZj-19" value="" style="rounded=0;whiteSpace=wrap;html=1;" parent="1" vertex="1">
          <mxGeometry x="480" y="506" width="370" height="314" as="geometry" />
        </mxCell>
        <mxCell id="S3-ySOjffZ_ttnA3KEZj-20" value="" style="endArrow=none;html=1;rounded=0;entryX=1.007;entryY=0.167;entryDx=0;entryDy=0;entryPerimeter=0;exitX=0.005;exitY=0.164;exitDx=0;exitDy=0;exitPerimeter=0;" parent="1" source="S3-ySOjffZ_ttnA3KEZj-19" target="S3-ySOjffZ_ttnA3KEZj-19" edge="1">
          <mxGeometry width="50" height="50" relative="1" as="geometry">
            <mxPoint x="500" y="551" as="sourcePoint" />
            <mxPoint x="800" y="551" as="targetPoint" />
          </mxGeometry>
        </mxCell>
        <mxCell id="S3-ySOjffZ_ttnA3KEZj-21" value="" style="endArrow=none;html=1;rounded=0;exitX=0;exitY=0.75;exitDx=0;exitDy=0;entryX=1;entryY=0.75;entryDx=0;entryDy=0;" parent="1" edge="1">
          <mxGeometry width="50" height="50" relative="1" as="geometry">
            <mxPoint x="480" y="689.58" as="sourcePoint" />
            <mxPoint x="850" y="689.58" as="targetPoint" />
          </mxGeometry>
        </mxCell>
        <mxCell id="S3-ySOjffZ_ttnA3KEZj-22" value="&amp;nbsp;AccommodationReservation" style="text;html=1;align=center;verticalAlign=middle;whiteSpace=wrap;rounded=0;strokeWidth=2;" parent="1" vertex="1">
          <mxGeometry x="552.5" y="510" width="195" height="40" as="geometry" />
        </mxCell>
        <mxCell id="S3-ySOjffZ_ttnA3KEZj-23" value="&lt;h1 style=&quot;margin-top: 0px;&quot;&gt;&lt;br&gt;&lt;/h1&gt;&lt;div&gt;+ Id : int&lt;/div&gt;&lt;div&gt;+ Name: String&lt;/div&gt;&lt;div&gt;+ GuestId : int&lt;/div&gt;&lt;div&gt;+ City : String&lt;/div&gt;&lt;div&gt;+ Country : String&lt;/div&gt;&lt;div&gt;&lt;div&gt;+ StartDate : DateTime&lt;/div&gt;&lt;div&gt;+ EndDate : DateTime&lt;/div&gt;&lt;div&gt;&lt;span style=&quot;background-color: initial;&quot;&gt;+ DateRange : String&lt;/span&gt;&lt;/div&gt;&lt;div&gt;&lt;br&gt;&lt;/div&gt;&lt;/div&gt;&lt;div&gt;&lt;br&gt;&lt;/div&gt;" style="text;html=1;whiteSpace=wrap;overflow=hidden;rounded=0;" parent="1" vertex="1">
          <mxGeometry x="490" y="510" width="240" height="210" as="geometry" />
        </mxCell>
        <mxCell id="S3-ySOjffZ_ttnA3KEZj-25" value="" style="rounded=0;whiteSpace=wrap;html=1;" parent="1" vertex="1">
          <mxGeometry x="500" y="210" width="410" height="250" as="geometry" />
        </mxCell>
        <mxCell id="S3-ySOjffZ_ttnA3KEZj-26" value="" style="endArrow=none;html=1;rounded=0;entryX=1;entryY=0.165;entryDx=0;entryDy=0;entryPerimeter=0;" parent="1" target="S3-ySOjffZ_ttnA3KEZj-25" edge="1">
          <mxGeometry width="50" height="50" relative="1" as="geometry">
            <mxPoint x="500" y="251" as="sourcePoint" />
            <mxPoint x="800" y="251" as="targetPoint" />
          </mxGeometry>
        </mxCell>
        <mxCell id="S3-ySOjffZ_ttnA3KEZj-27" value="" style="endArrow=none;html=1;rounded=0;exitX=0;exitY=0.75;exitDx=0;exitDy=0;entryX=1;entryY=0.75;entryDx=0;entryDy=0;" parent="1" edge="1">
          <mxGeometry width="50" height="50" relative="1" as="geometry">
            <mxPoint x="500" y="340" as="sourcePoint" />
            <mxPoint x="910" y="340" as="targetPoint" />
          </mxGeometry>
        </mxCell>
        <mxCell id="S3-ySOjffZ_ttnA3KEZj-28" value="RenovationRecommendation" style="text;html=1;align=center;verticalAlign=middle;whiteSpace=wrap;rounded=0;strokeWidth=2;" parent="1" vertex="1">
          <mxGeometry x="607.5" y="210" width="195" height="40" as="geometry" />
        </mxCell>
        <mxCell id="S3-ySOjffZ_ttnA3KEZj-29" value="&lt;h1 style=&quot;margin-top: 0px;&quot;&gt;&lt;br&gt;&lt;/h1&gt;&lt;div&gt;+ Id : int&lt;/div&gt;&lt;div&gt;&lt;div&gt;+ Date : DateTime&lt;/div&gt;&lt;div&gt;+ Level :RecommendationLevel&lt;/div&gt;&lt;div&gt;+ Comment : String&lt;/div&gt;&lt;div&gt;&lt;br&gt;&lt;/div&gt;&lt;/div&gt;&lt;div&gt;&lt;br&gt;&lt;/div&gt;" style="text;html=1;whiteSpace=wrap;overflow=hidden;rounded=0;" parent="1" vertex="1">
          <mxGeometry x="510" y="210" width="220" height="160" as="geometry" />
        </mxCell>
        <mxCell id="S3-ySOjffZ_ttnA3KEZj-30" value="" style="rounded=0;whiteSpace=wrap;html=1;" parent="1" vertex="1">
          <mxGeometry x="310" y="20" width="240" height="130" as="geometry" />
        </mxCell>
        <mxCell id="S3-ySOjffZ_ttnA3KEZj-31" value="" style="endArrow=none;html=1;rounded=0;" parent="1" edge="1">
          <mxGeometry width="50" height="50" relative="1" as="geometry">
            <mxPoint x="310" y="61" as="sourcePoint" />
            <mxPoint x="550" y="61" as="targetPoint" />
          </mxGeometry>
        </mxCell>
        <mxCell id="S3-ySOjffZ_ttnA3KEZj-33" value="RecommendationLevel &amp;lt;&amp;lt;enum&amp;gt;&amp;gt;" style="text;html=1;align=center;verticalAlign=middle;whiteSpace=wrap;rounded=0;strokeWidth=2;" parent="1" vertex="1">
          <mxGeometry x="340" y="20" width="170" height="40" as="geometry" />
        </mxCell>
        <mxCell id="S3-ySOjffZ_ttnA3KEZj-34" value="&lt;h1 style=&quot;margin-top: 0px;&quot;&gt;&lt;br&gt;&lt;/h1&gt;&lt;div&gt;LEVEL1&lt;/div&gt;&lt;div&gt;LEVEL2&lt;/div&gt;&lt;div&gt;LEVEL3&lt;/div&gt;&lt;div&gt;LEVEL4&lt;/div&gt;&lt;div&gt;LEVEL5&lt;/div&gt;" style="text;html=1;whiteSpace=wrap;overflow=hidden;rounded=0;" parent="1" vertex="1">
          <mxGeometry x="320" y="20" width="150" height="120" as="geometry" />
        </mxCell>
        <mxCell id="S3-ySOjffZ_ttnA3KEZj-37" value="" style="rounded=0;whiteSpace=wrap;html=1;" parent="1" vertex="1">
          <mxGeometry x="580" y="30" width="240" height="100" as="geometry" />
        </mxCell>
        <mxCell id="S3-ySOjffZ_ttnA3KEZj-38" value="" style="endArrow=none;html=1;rounded=0;" parent="1" edge="1">
          <mxGeometry width="50" height="50" relative="1" as="geometry">
            <mxPoint x="580" y="71" as="sourcePoint" />
            <mxPoint x="820" y="71" as="targetPoint" />
          </mxGeometry>
        </mxCell>
        <mxCell id="S3-ySOjffZ_ttnA3KEZj-40" value="RequestStatus&amp;nbsp; &amp;lt;&amp;lt;enum&amp;gt;&amp;gt;" style="text;html=1;align=center;verticalAlign=middle;whiteSpace=wrap;rounded=0;strokeWidth=2;" parent="1" vertex="1">
          <mxGeometry x="630" y="30" width="140" height="40" as="geometry" />
        </mxCell>
        <mxCell id="S3-ySOjffZ_ttnA3KEZj-41" value="&lt;h1 style=&quot;margin-top: 0px;&quot;&gt;&lt;br&gt;&lt;/h1&gt;&lt;div&gt;PENDING&lt;/div&gt;&lt;div&gt;APPROVED&lt;/div&gt;&lt;div&gt;REJECTED&lt;/div&gt;" style="text;html=1;whiteSpace=wrap;overflow=hidden;rounded=0;" parent="1" vertex="1">
          <mxGeometry x="590" y="25" width="150" height="110" as="geometry" />
        </mxCell>
        <mxCell id="S3-ySOjffZ_ttnA3KEZj-42" value="" style="rounded=0;whiteSpace=wrap;html=1;" parent="1" vertex="1">
          <mxGeometry x="-20" y="820" width="370" height="360" as="geometry" />
        </mxCell>
        <mxCell id="S3-ySOjffZ_ttnA3KEZj-43" value="" style="endArrow=none;html=1;rounded=0;" parent="1" edge="1">
          <mxGeometry width="50" height="50" relative="1" as="geometry">
            <mxPoint x="-20" y="860" as="sourcePoint" />
            <mxPoint x="352" y="860" as="targetPoint" />
          </mxGeometry>
        </mxCell>
        <mxCell id="S3-ySOjffZ_ttnA3KEZj-44" value="" style="endArrow=none;html=1;rounded=0;exitX=-0.005;exitY=0.858;exitDx=0;exitDy=0;exitPerimeter=0;" parent="1" edge="1">
          <mxGeometry width="50" height="50" relative="1" as="geometry">
            <mxPoint x="-20" y="1070" as="sourcePoint" />
            <mxPoint x="353" y="1072" as="targetPoint" />
          </mxGeometry>
        </mxCell>
        <mxCell id="S3-ySOjffZ_ttnA3KEZj-45" value="DelayReservationRequest" style="text;html=1;align=center;verticalAlign=middle;whiteSpace=wrap;rounded=0;strokeWidth=2;" parent="1" vertex="1">
          <mxGeometry x="115" y="820" width="90" height="40" as="geometry" />
        </mxCell>
        <mxCell id="S3-ySOjffZ_ttnA3KEZj-46" value="&lt;h1 style=&quot;margin-top: 0px;&quot;&gt;&lt;br&gt;&lt;/h1&gt;&lt;div&gt;+ Id : int&lt;/div&gt;&lt;div&gt;+ HostId : int&lt;/div&gt;&lt;div&gt;+ GuestId : int&amp;nbsp;&lt;/div&gt;&lt;div&gt;+ StartDate : DateTime&lt;/div&gt;&lt;div&gt;+ EndDate : DateTime&lt;/div&gt;&lt;div&gt;&lt;div&gt;+ StartLastDate : DateTime&lt;/div&gt;&lt;div&gt;+ EndLastDate : DateTime&lt;/div&gt;&lt;/div&gt;&lt;div&gt;+ DateRange : String&lt;/div&gt;&lt;div&gt;+ Status : RequestStatus&lt;/div&gt;&lt;div&gt;+ Comment : String&lt;/div&gt;&lt;div&gt;+ RepliedDate : DateTime&lt;/div&gt;&lt;div&gt;&lt;br&gt;&lt;/div&gt;" style="text;html=1;whiteSpace=wrap;overflow=hidden;rounded=0;" parent="1" vertex="1">
          <mxGeometry x="-10" y="830" width="150" height="230" as="geometry" />
        </mxCell>
        <mxCell id="S3-ySOjffZ_ttnA3KEZj-47" value="" style="rounded=0;whiteSpace=wrap;html=1;" parent="1" vertex="1">
          <mxGeometry x="500" y="883" width="380" height="253.5" as="geometry" />
        </mxCell>
        <mxCell id="S3-ySOjffZ_ttnA3KEZj-48" value="" style="endArrow=none;html=1;rounded=0;" parent="1" edge="1">
          <mxGeometry width="50" height="50" relative="1" as="geometry">
            <mxPoint x="500" y="924" as="sourcePoint" />
            <mxPoint x="883" y="926.5" as="targetPoint" />
          </mxGeometry>
        </mxCell>
        <mxCell id="S3-ySOjffZ_ttnA3KEZj-49" value="" style="endArrow=none;html=1;rounded=0;exitX=0;exitY=0.75;exitDx=0;exitDy=0;entryX=1;entryY=0.75;entryDx=0;entryDy=0;" parent="1" edge="1">
          <mxGeometry width="50" height="50" relative="1" as="geometry">
            <mxPoint x="500" y="1016.495" as="sourcePoint" />
            <mxPoint x="880" y="1016.495" as="targetPoint" />
          </mxGeometry>
        </mxCell>
        <mxCell id="S3-ySOjffZ_ttnA3KEZj-50" value="ReservationCancellation" style="text;html=1;align=center;verticalAlign=middle;whiteSpace=wrap;rounded=0;strokeWidth=2;" parent="1" vertex="1">
          <mxGeometry x="645" y="883" width="90" height="40" as="geometry" />
        </mxCell>
        <mxCell id="S3-ySOjffZ_ttnA3KEZj-51" value="&lt;h1 style=&quot;margin-top: 0px;&quot;&gt;&lt;br&gt;&lt;/h1&gt;&lt;div&gt;+ GuestId : int&lt;/div&gt;&lt;div&gt;+ HostId : int&lt;/div&gt;&lt;div&gt;+ StartDate : DateTime&lt;/div&gt;&lt;div&gt;+ EndDate : DateTime&lt;/div&gt;&lt;div&gt;+ CancellationDate : DateTime&lt;/div&gt;&lt;div&gt;&lt;br&gt;&lt;/div&gt;" style="text;html=1;whiteSpace=wrap;overflow=hidden;rounded=0;" parent="1" vertex="1">
          <mxGeometry x="510" y="883" width="190" height="180" as="geometry" />
        </mxCell>
        <mxCell id="S3-ySOjffZ_ttnA3KEZj-52" value="" style="endArrow=blockThin;html=1;rounded=0;exitX=0.5;exitY=1;exitDx=0;exitDy=0;endFill=1;entryX=0.607;entryY=0.008;entryDx=0;entryDy=0;entryPerimeter=0;" parent="1" source="S3-ySOjffZ_ttnA3KEZj-25" target="S3-ySOjffZ_ttnA3KEZj-19" edge="1">
          <mxGeometry width="50" height="50" relative="1" as="geometry">
            <mxPoint x="400" y="470" as="sourcePoint" />
            <mxPoint x="707" y="507" as="targetPoint" />
          </mxGeometry>
        </mxCell>
        <mxCell id="S3-ySOjffZ_ttnA3KEZj-53" value="" style="endArrow=diamondThin;html=1;rounded=0;endFill=1;" parent="1" edge="1">
          <mxGeometry width="50" height="50" relative="1" as="geometry">
            <mxPoint x="420" y="961.25" as="sourcePoint" />
            <mxPoint x="350" y="961.25" as="targetPoint" />
          </mxGeometry>
        </mxCell>
        <mxCell id="S3-ySOjffZ_ttnA3KEZj-54" value="" style="endArrow=none;html=1;rounded=0;endFill=0;" parent="1" edge="1">
          <mxGeometry width="50" height="50" relative="1" as="geometry">
            <mxPoint x="420" y="961.25" as="sourcePoint" />
            <mxPoint x="420" y="681.25" as="targetPoint" />
          </mxGeometry>
        </mxCell>
        <mxCell id="S3-ySOjffZ_ttnA3KEZj-55" value="" style="endArrow=none;html=1;rounded=0;entryX=1;entryY=1;entryDx=0;entryDy=0;exitX=0;exitY=1;exitDx=0;exitDy=0;" parent="1" source="S3-ySOjffZ_ttnA3KEZj-74" target="S3-ySOjffZ_ttnA3KEZj-74" edge="1">
          <mxGeometry width="50" height="50" relative="1" as="geometry">
            <mxPoint x="410" y="681.25" as="sourcePoint" />
            <mxPoint x="489.6700000000001" y="682.25" as="targetPoint" />
          </mxGeometry>
        </mxCell>
        <mxCell id="S3-ySOjffZ_ttnA3KEZj-57" value="" style="endArrow=diamondThin;html=1;rounded=0;endFill=1;" parent="1" edge="1">
          <mxGeometry width="50" height="50" relative="1" as="geometry">
            <mxPoint x="200" y="450" as="sourcePoint" />
            <mxPoint x="200" y="491" as="targetPoint" />
            <Array as="points">
              <mxPoint x="200" y="461" />
            </Array>
          </mxGeometry>
        </mxCell>
        <mxCell id="S3-ySOjffZ_ttnA3KEZj-60" value="" style="endArrow=blockThin;html=1;rounded=0;exitX=0;exitY=1;exitDx=0;exitDy=0;endFill=1;" parent="1" edge="1">
          <mxGeometry width="50" height="50" relative="1" as="geometry">
            <mxPoint x="651" y="840" as="sourcePoint" />
            <mxPoint x="649.5" y="882" as="targetPoint" />
          </mxGeometry>
        </mxCell>
        <mxCell id="S3-ySOjffZ_ttnA3KEZj-62" value="" style="endArrow=diamondThin;html=1;rounded=0;endFill=1;exitX=1;exitY=1;exitDx=0;exitDy=0;" parent="1" source="S3-ySOjffZ_ttnA3KEZj-72" edge="1">
          <mxGeometry width="50" height="50" relative="1" as="geometry">
            <mxPoint x="500" y="640" as="sourcePoint" />
            <mxPoint x="344" y="640" as="targetPoint" />
          </mxGeometry>
        </mxCell>
        <mxCell id="S3-ySOjffZ_ttnA3KEZj-63" value="" style="endArrow=blockThin;html=1;rounded=0;strokeColor=default;endFill=1;" parent="1" edge="1">
          <mxGeometry width="50" height="50" relative="1" as="geometry">
            <mxPoint x="415" y="610" as="sourcePoint" />
            <mxPoint x="345" y="610" as="targetPoint" />
          </mxGeometry>
        </mxCell>
        <mxCell id="S3-ySOjffZ_ttnA3KEZj-64" value="" style="endArrow=none;html=1;rounded=0;" parent="1" edge="1">
          <mxGeometry width="50" height="50" relative="1" as="geometry">
            <mxPoint x="415" y="610" as="sourcePoint" />
            <mxPoint x="415" y="330" as="targetPoint" />
          </mxGeometry>
        </mxCell>
        <mxCell id="S3-ySOjffZ_ttnA3KEZj-65" value="" style="endArrow=none;html=1;rounded=0;" parent="1" edge="1">
          <mxGeometry width="50" height="50" relative="1" as="geometry">
            <mxPoint x="415" y="330" as="sourcePoint" />
            <mxPoint x="500" y="330" as="targetPoint" />
          </mxGeometry>
        </mxCell>
        <mxCell id="S3-ySOjffZ_ttnA3KEZj-66" value="0 ... *" style="text;html=1;align=center;verticalAlign=middle;whiteSpace=wrap;rounded=0;" parent="1" vertex="1">
          <mxGeometry x="430" y="300" width="60" height="30" as="geometry" />
        </mxCell>
        <mxCell id="S3-ySOjffZ_ttnA3KEZj-69" value="0 ... 1" style="text;html=1;align=center;verticalAlign=middle;whiteSpace=wrap;rounded=0;" parent="1" vertex="1">
          <mxGeometry x="345" y="585" width="60" height="20" as="geometry" />
        </mxCell>
        <mxCell id="S3-ySOjffZ_ttnA3KEZj-70" value="0 ... *" style="text;html=1;align=center;verticalAlign=middle;whiteSpace=wrap;rounded=0;" parent="1" vertex="1">
          <mxGeometry x="210" y="450" width="50" height="30" as="geometry" />
        </mxCell>
        <mxCell id="S3-ySOjffZ_ttnA3KEZj-71" value="0 ... 1" style="text;html=1;align=center;verticalAlign=middle;whiteSpace=wrap;rounded=0;" parent="1" vertex="1">
          <mxGeometry x="140" y="470" width="40" height="30" as="geometry" />
        </mxCell>
        <mxCell id="S3-ySOjffZ_ttnA3KEZj-72" value="0 ... *" style="text;html=1;align=center;verticalAlign=middle;whiteSpace=wrap;rounded=0;" parent="1" vertex="1">
          <mxGeometry x="420" y="610" width="60" height="30" as="geometry" />
        </mxCell>
        <mxCell id="S3-ySOjffZ_ttnA3KEZj-73" value="0 ... 1" style="text;html=1;align=center;verticalAlign=middle;whiteSpace=wrap;rounded=0;" parent="1" vertex="1">
          <mxGeometry x="340" y="640" width="60" height="20" as="geometry" />
        </mxCell>
        <mxCell id="S3-ySOjffZ_ttnA3KEZj-74" value="0 ... 1" style="text;html=1;align=center;verticalAlign=middle;whiteSpace=wrap;rounded=0;" parent="1" vertex="1">
          <mxGeometry x="420" y="660" width="60" height="20" as="geometry" />
        </mxCell>
        <mxCell id="S3-ySOjffZ_ttnA3KEZj-75" value="0 ... *" style="text;html=1;align=center;verticalAlign=middle;whiteSpace=wrap;rounded=0;" parent="1" vertex="1">
          <mxGeometry x="350" y="930" width="60" height="30" as="geometry" />
        </mxCell>
        <mxCell id="S3-ySOjffZ_ttnA3KEZj-76" value="0 ... 1" style="text;html=1;align=center;verticalAlign=middle;whiteSpace=wrap;rounded=0;" parent="1" vertex="1">
          <mxGeometry x="345" y="700" width="60" height="20" as="geometry" />
        </mxCell>
        <mxCell id="S3-ySOjffZ_ttnA3KEZj-78" value="&lt;h1 style=&quot;margin-top: 0px;&quot;&gt;&lt;br&gt;&lt;/h1&gt;&lt;div&gt;+ CanBeCanelled(renovation: Renovation) : bool&lt;/div&gt;" style="text;html=1;whiteSpace=wrap;overflow=hidden;rounded=0;" parent="1" vertex="1">
          <mxGeometry x="55" y="350" width="280" height="90" as="geometry" />
        </mxCell>
        <mxCell id="S3-ySOjffZ_ttnA3KEZj-79" value="&lt;h1 style=&quot;margin-top: 0px;&quot;&gt;&lt;br&gt;&lt;/h1&gt;&lt;div&gt;+ GetNumOfReservationByYear(accId: int, year: int) : int&lt;/div&gt;&lt;div&gt;+ GetNumOfReservationByMonth(accId: int, month:int, year: int) : int&lt;br&gt;&lt;/div&gt;&lt;div&gt;+GetAllYearsForAcc(accId: int): List&amp;lt;int&amp;gt;&lt;/div&gt;&lt;div&gt;+GetAllMonthsForAcc(accId: int, int year): List&amp;lt;int&amp;gt;&lt;br&gt;&lt;/div&gt;&lt;div&gt;&lt;div&gt;+GetAllReservationsForYears(accId: int): List&amp;lt;int&amp;gt;&lt;/div&gt;&lt;div&gt;+GetAllReservationsForMonths(accId: int, int year): List&amp;lt;int&amp;gt;&lt;/div&gt;&lt;/div&gt;&lt;div&gt;+GetMostBisyYearForAcc( accId: int): int&lt;/div&gt;&lt;div&gt;+GetMostBisyMonthForAcc( accId: int, int year): int&lt;br&gt;&lt;/div&gt;" style="text;html=1;whiteSpace=wrap;overflow=hidden;rounded=0;" parent="1" vertex="1">
          <mxGeometry x="480" y="650" width="370" height="170" as="geometry" />
        </mxCell>
        <mxCell id="S3-ySOjffZ_ttnA3KEZj-80" value="0 ... *" style="text;html=1;align=center;verticalAlign=middle;whiteSpace=wrap;rounded=0;" parent="1" vertex="1">
          <mxGeometry x="720" y="460" width="60" height="30" as="geometry" />
        </mxCell>
        <mxCell id="S3-ySOjffZ_ttnA3KEZj-82" value="0 ... 1" style="text;html=1;align=center;verticalAlign=middle;whiteSpace=wrap;rounded=0;" parent="1" vertex="1">
          <mxGeometry x="640" y="486" width="60" height="20" as="geometry" />
        </mxCell>
        <mxCell id="S3-ySOjffZ_ttnA3KEZj-83" value="&lt;h1 style=&quot;margin-top: 0px;&quot;&gt;&lt;br&gt;&lt;/h1&gt;&lt;div&gt;+ GetNumOf&lt;span style=&quot;text-align: center;&quot;&gt;Cancellation&lt;/span&gt;ByYear(accId: int, year: int) : int&lt;/div&gt;&lt;div&gt;+ GetNumOf&lt;span style=&quot;text-align: center;&quot;&gt;Cancellation&lt;/span&gt;ByMonth(accId: int, month:int, year: int) : int&lt;br&gt;&lt;/div&gt;&lt;div&gt;+GetAllYearsForAcc(accId: int): List&amp;lt;int&amp;gt;&lt;/div&gt;&lt;div&gt;+GetAllMonthsForAcc(accId: int, int year): List&amp;lt;int&amp;gt;&lt;br&gt;&lt;/div&gt;&lt;div&gt;&lt;div&gt;+GetAll&lt;span style=&quot;text-align: center;&quot;&gt;Cancellation&lt;/span&gt;ForYears(accId: int): List&amp;lt;int&amp;gt;&lt;/div&gt;&lt;div&gt;+GetAll&lt;span style=&quot;text-align: center;&quot;&gt;Cancellation&lt;/span&gt;ForMonths(accId: int, int year): List&amp;lt;int&amp;gt;&lt;/div&gt;&lt;/div&gt;" style="text;html=1;whiteSpace=wrap;overflow=hidden;rounded=0;" parent="1" vertex="1">
          <mxGeometry x="505" y="976.5" width="370" height="150" as="geometry" />
        </mxCell>
        <mxCell id="S3-ySOjffZ_ttnA3KEZj-84" value="&lt;h1 style=&quot;margin-top: 0px;&quot;&gt;&lt;br&gt;&lt;/h1&gt;&lt;div&gt;+ GetNumOf&lt;span style=&quot;text-align: center;&quot;&gt;Recommendation&lt;/span&gt;ByYear(accId: int, year: int) : int&lt;/div&gt;&lt;div&gt;+ GetNumOf&lt;span style=&quot;text-align: center;&quot;&gt;Recommendation&lt;/span&gt;ByMonth(accId: int, month:int, year: int) : int&lt;br&gt;&lt;/div&gt;&lt;div&gt;+GetAllYearsForAcc(accId: int): List&amp;lt;int&amp;gt;&lt;/div&gt;&lt;div&gt;+GetAllMonthsForAcc(accId: int, int year): List&amp;lt;int&amp;gt;&lt;br&gt;&lt;/div&gt;&lt;div&gt;&lt;div&gt;+GetAll&lt;span style=&quot;text-align: center;&quot;&gt;Recommendation&lt;/span&gt;ForYears(accId: int): List&amp;lt;int&amp;gt;&lt;/div&gt;&lt;div&gt;+GetAll&lt;span style=&quot;text-align: center;&quot;&gt;Recommendation&lt;/span&gt;ForMonths(accId: int, int year): List&amp;lt;int&amp;gt;&lt;/div&gt;&lt;/div&gt;" style="text;html=1;whiteSpace=wrap;overflow=hidden;rounded=0;" parent="1" vertex="1">
          <mxGeometry x="505" y="300" width="405" height="150" as="geometry" />
        </mxCell>
        <mxCell id="S3-ySOjffZ_ttnA3KEZj-85" value="&lt;h1 style=&quot;margin-top: 0px;&quot;&gt;&lt;br&gt;&lt;/h1&gt;&lt;div&gt;+ GetNumOfDelaysByYear(accId: int, year: int) : int&lt;/div&gt;&lt;div&gt;+ GetNumOfDelaysByMonth(accId: int, month:int, year: int) : int&lt;br&gt;&lt;/div&gt;&lt;div&gt;+GetAllYearsForAcc(accId: int): List&amp;lt;int&amp;gt;&lt;/div&gt;&lt;div&gt;+GetAllMonthsForAcc(accId: int, int year): List&amp;lt;int&amp;gt;&lt;br&gt;&lt;/div&gt;&lt;div&gt;&lt;div&gt;+GetAllDelaysForYears(accId: int): List&amp;lt;int&amp;gt;&lt;/div&gt;&lt;div&gt;+GetAllDelaysForMonths(accId: int, int year): List&amp;lt;int&amp;gt;&lt;/div&gt;&lt;/div&gt;" style="text;html=1;whiteSpace=wrap;overflow=hidden;rounded=0;" parent="1" vertex="1">
          <mxGeometry x="-20" y="1030" width="370" height="150" as="geometry" />
        </mxCell>
        <mxCell id="S3-ySOjffZ_ttnA3KEZj-86" value="" style="endArrow=classic;html=1;rounded=0;" parent="1" edge="1">
          <mxGeometry width="50" height="50" relative="1" as="geometry">
            <mxPoint x="90" y="160" as="sourcePoint" />
            <mxPoint x="10" y="160" as="targetPoint" />
          </mxGeometry>
        </mxCell>
        <mxCell id="S3-ySOjffZ_ttnA3KEZj-87" value="Strelica pokazuje asocijaciju uz podatak koja klasa ima uvid u ovu drugu" style="text;html=1;align=center;verticalAlign=middle;whiteSpace=wrap;rounded=0;" parent="1" vertex="1">
          <mxGeometry y="170" width="300" height="30" as="geometry" />
        </mxCell>
        <mxCell id="dyd3JE4wYik6x0IHoKBb-1" value="" style="endArrow=none;html=1;rounded=0;entryX=0;entryY=1;entryDx=0;entryDy=0;" edge="1" parent="1">
          <mxGeometry width="50" height="50" relative="1" as="geometry">
            <mxPoint x="370" y="840" as="sourcePoint" />
            <mxPoint x="651" y="840" as="targetPoint" />
          </mxGeometry>
        </mxCell>
        <mxCell id="dyd3JE4wYik6x0IHoKBb-2" value="" style="endArrow=none;html=1;rounded=0;" edge="1" parent="1">
          <mxGeometry width="50" height="50" relative="1" as="geometry">
            <mxPoint x="370" y="730" as="sourcePoint" />
            <mxPoint x="370" y="840" as="targetPoint" />
          </mxGeometry>
        </mxCell>
        <mxCell id="dyd3JE4wYik6x0IHoKBb-3" value="" style="endArrow=none;html=1;rounded=0;" edge="1" parent="1">
          <mxGeometry width="50" height="50" relative="1" as="geometry">
            <mxPoint x="343" y="730" as="sourcePoint" />
            <mxPoint x="373" y="730" as="targetPoint" />
          </mxGeometry>
        </mxCell>
        <mxCell id="dyd3JE4wYik6x0IHoKBb-4" value="0 ... *" style="text;html=1;align=center;verticalAlign=middle;whiteSpace=wrap;rounded=0;" vertex="1" parent="1">
          <mxGeometry x="660" y="853" width="60" height="30" as="geometry" />
        </mxCell>
      </root>
    </mxGraphModel>
  </diagram>
</mxfile>
